<?xml version="1.0" standalone="no"?>
<!DOCTYPE svg PUBLIC "-//W3C//DTD SVG 20010904//EN"
 "http://www.w3.org/TR/2001/REC-SVG-20010904/DTD/svg10.dtd">
<svg version="1.0" xmlns="http://www.w3.org/2000/svg"
 width="1500.000000pt" height="1500.000000pt" viewBox="0 0 1500.000000 1500.000000"
 preserveAspectRatio="xMidYMid meet">

<g transform="translate(0.000000,1500.000000) scale(0.100000,-0.100000)"
fill="#000000" stroke="none">
<path d="M0 7500 l0 -7500 7500 0 7500 0 0 7500 0 7500 -7500 0 -7500 0 0
-7500z m11250 695 l0 -255 328 -2 327 -3 0 -185 0 -185 -327 -3 -328 -2 0
-590 0 -590 -190 0 -190 0 0 590 0 590 -245 0 -245 0 0 190 0 190 245 0 245 0
0 255 0 255 190 0 190 0 0 -255z m-8560 -445 l0 -190 -527 0 c-483 0 -531 -2
-563 -18 -67 -33 -70 -51 -70 -380 0 -318 3 -339 55 -380 28 -22 29 -22 566
-22 l539 0 0 -190 0 -190 -524 0 c-590 0 -627 3 -746 65 -76 40 -160 121 -204
197 -57 98 -61 130 -61 518 l0 355 27 73 c66 181 195 299 372 337 46 10 191
14 599 14 l537 1 0 -190z m1655 161 c166 -66 264 -172 317 -341 22 -72 23 -87
23 -410 0 -367 -4 -399 -58 -509 -55 -113 -161 -197 -307 -247 -50 -17 -91
-19 -495 -19 -427 0 -442 1 -510 22 -177 56 -312 205 -344 377 -18 96 -14 686
4 765 34 141 130 263 259 327 119 58 168 63 636 61 412 -2 415 -2 475 -26z
m2035 -156 l0 -184 -447 -3 c-406 -3 -451 -5 -480 -21 -65 -35 -63 -20 -63
-622 l0 -545 -190 0 -190 0 0 558 c0 531 1 561 21 632 38 141 126 248 254 311
114 56 129 57 633 58 l462 1 0 -185z m1370 161 c95 -31 153 -67 220 -135 70
-70 112 -144 132 -233 9 -37 13 -154 13 -388 0 -371 -4 -404 -68 -523 -64
-122 -203 -223 -340 -248 -38 -7 -208 -9 -475 -7 -367 4 -424 6 -472 22 -149
48 -263 154 -321 297 -30 75 -38 239 -14 328 36 140 119 252 236 319 103 59
133 62 556 62 l383 0 0 -180 0 -180 -361 0 c-402 0 -410 -1 -450 -66 -27 -45
-29 -129 -3 -173 10 -17 37 -40 59 -51 39 -19 63 -20 418 -20 422 0 427 1 468
66 l24 39 0 317 c0 304 -1 318 -21 344 -11 15 -33 37 -48 48 -26 20 -43 21
-469 26 l-442 5 -3 165 c-1 90 0 170 3 178 4 11 85 13 462 10 409 -4 464 -6
513 -22z m1042 -458 l3 -483 23 -45 c30 -57 86 -116 137 -143 39 -21 52 -22
423 -25 l382 -3 0 591 0 590 190 0 190 0 0 -692 c0 -458 -4 -706 -11 -731 -15
-55 -70 -112 -121 -126 -31 -9 -179 -11 -543 -9 l-500 4 -85 30 c-226 82 -361
215 -437 429 l-28 80 -3 508 -3 507 190 0 190 0 3 -482z m4702 454 c159 -59
268 -175 322 -342 15 -47 18 -103 22 -370 4 -358 -2 -427 -54 -538 -41 -91
-113 -163 -212 -215 -118 -62 -158 -67 -589 -67 -480 0 -542 10 -669 106 -108
81 -175 192 -194 322 -8 47 -10 188 -8 400 4 302 6 331 25 384 47 127 146 236
261 290 109 52 165 57 622 55 401 -3 417 -3 474 -25z m-7114 -672 l0 -190
-422 2 -423 3 -3 175 c-1 96 0 180 2 187 4 10 93 13 426 13 l420 0 0 -190z"/>
<path d="M3415 7546 c-16 -7 -39 -23 -50 -36 -19 -21 -20 -38 -23 -341 -2
-273 -1 -323 13 -349 31 -60 34 -60 473 -60 394 0 400 0 427 22 52 41 55 62
55 380 0 329 -3 347 -70 380 -32 16 -73 18 -415 18 -293 -1 -387 -4 -410 -14z"/>
<path d="M12560 7542 c-67 -33 -70 -50 -70 -385 0 -323 2 -333 56 -376 26 -21
36 -21 428 -21 380 0 403 1 433 20 51 31 55 59 51 401 -3 290 -4 308 -23 329
-43 48 -59 50 -462 50 -340 0 -382 -2 -413 -18z"/>
</g>
</svg>
